<svg width="40" height="40" viewBox="0 0 40 40" fill="none" xmlns="http://www.w3.org/2000/svg">
<circle cx="20" cy="20" r="20" fill="#F8F8F8"/>
<path d="M28.3087 25.275C28.3087 25.575 28.242 25.8833 28.1003 26.1833C27.9587 26.4833 27.7753 26.7667 27.5337 27.0333C27.1253 27.4833 26.6753 27.8083 26.167 28.0167C25.667 28.225 25.1253 28.3333 24.542 28.3333C23.692 28.3333 22.7837 28.1333 21.8253 27.725C20.867 27.3167 19.9087 26.7667 18.9587 26.075C18.0003 25.375 17.092 24.6 16.2253 23.7417C15.367 22.875 14.592 21.9667 13.9003 21.0167C13.217 20.0667 12.667 19.1167 12.267 18.175C11.867 17.225 11.667 16.3167 11.667 15.45C11.667 14.8833 11.767 14.3417 11.967 13.8417C12.167 13.3333 12.4837 12.8667 12.9253 12.45C13.4587 11.925 14.042 11.6667 14.6587 11.6667C14.892 11.6667 15.1253 11.7167 15.3337 11.8167C15.5503 11.9167 15.742 12.0667 15.892 12.2833L17.8253 15.0083C17.9753 15.2167 18.0837 15.4083 18.1587 15.5917C18.2337 15.7667 18.2753 15.9417 18.2753 16.1C18.2753 16.3 18.217 16.5 18.1003 16.6917C17.992 16.8833 17.8337 17.0833 17.6337 17.2833L17.0003 17.9417C16.9087 18.0333 16.867 18.1417 16.867 18.275C16.867 18.3417 16.8753 18.4 16.892 18.4667C16.917 18.5333 16.942 18.5833 16.9587 18.6333C17.1087 18.9083 17.367 19.2667 17.7337 19.7C18.1087 20.1333 18.5087 20.575 18.942 21.0167C19.392 21.4583 19.8253 21.8667 20.267 22.2417C20.7003 22.6083 21.0587 22.8583 21.342 23.0083C21.3837 23.025 21.4337 23.05 21.492 23.075C21.5587 23.1 21.6253 23.1083 21.7003 23.1083C21.842 23.1083 21.9503 23.0583 22.042 22.9667L22.6753 22.3417C22.8837 22.1333 23.0837 21.975 23.2753 21.875C23.467 21.7583 23.6587 21.7 23.867 21.7C24.0253 21.7 24.192 21.7333 24.3753 21.8083C24.5587 21.8833 24.7503 21.9917 24.9587 22.1333L27.717 24.0917C27.9337 24.2417 28.0837 24.4167 28.1753 24.625C28.2587 24.8333 28.3087 25.0417 28.3087 25.275Z" stroke="#757575" stroke-width="1.5" stroke-miterlimit="10"/>
</svg>
