<svg width="60" height="60" viewBox="0 0 60 60" fill="none" xmlns="http://www.w3.org/2000/svg">
<g filter="url(#filter0_d_160_599)">
<circle cx="30" cy="25" r="20" fill="#F8F8F8"/>
<path d="M33.7123 29.7435L25.227 21.2583C24.9371 20.9683 24.9371 20.4875 25.227 20.1976C25.5169 19.9077 25.9977 19.9077 26.2877 20.1976L34.7729 28.6829C35.0628 28.9728 35.0628 29.4536 34.7729 29.7435C34.483 30.0335 34.0022 30.0335 33.7123 29.7435Z" fill="#757575"/>
<path d="M25.2271 29.7435C24.9372 29.4536 24.9372 28.9728 25.2271 28.6829L33.7123 20.1976C34.0023 19.9077 34.4831 19.9077 34.773 20.1976C35.0629 20.4875 35.0629 20.9683 34.773 21.2583L26.2877 29.7435C25.9978 30.0335 25.517 30.0335 25.2271 29.7435Z" fill="#757575"/>
</g>
<defs>
<filter id="filter0_d_160_599" x="0" y="0" width="60" height="60" filterUnits="userSpaceOnUse" color-interpolation-filters="sRGB">
<feFlood flood-opacity="0" result="BackgroundImageFix"/>
<feColorMatrix in="SourceAlpha" type="matrix" values="0 0 0 0 0 0 0 0 0 0 0 0 0 0 0 0 0 0 127 0" result="hardAlpha"/>
<feOffset dy="5"/>
<feGaussianBlur stdDeviation="5"/>
<feComposite in2="hardAlpha" operator="out"/>
<feColorMatrix type="matrix" values="0 0 0 0 0 0 0 0 0 0 0 0 0 0 0 0 0 0 0.1 0"/>
<feBlend mode="normal" in2="BackgroundImageFix" result="effect1_dropShadow_160_599"/>
<feBlend mode="normal" in="SourceGraphic" in2="effect1_dropShadow_160_599" result="shape"/>
</filter>
</defs>
</svg>
