<svg width="36" height="19" viewBox="0 0 36 19" fill="none" xmlns="http://www.w3.org/2000/svg">
<rect x="24.8643" y="1.0696" width="14.9898" height="17.6665" transform="rotate(85.0647 24.8643 1.0696)" fill="#2C2E3E"/>
<path fill-rule="evenodd" clip-rule="evenodd" d="M25.3487 8.4942L25.1309 8.51556L26.1537 16.0038L30.3673 15.6399C32.5674 15.2324 35.2335 12.8962 34.323 7.76592C34.2731 2.46492 31.3123 0.730056 29.0777 0.705738L24.8641 1.06959L25.3487 8.4942Z" fill="#2C2E3E"/>
<path fill-rule="evenodd" clip-rule="evenodd" d="M8.5527 17.5236L7.91252 10.1098L7.26312 2.58943C2.25978 2.89251 0.949971 5.39677 1.07432 6.83686L1.40546 10.6717L1.40593 10.6771L1.73707 14.5119C1.86142 15.952 3.57146 18.0827 8.5527 17.5236Z" fill="#2C2E3E"/>
<path d="M10.6344 14.8722L21.195 13.9603C21.963 13.894 22.2845 14.5468 22.3492 14.8816L9.86849 15.9593C10.0192 15.2155 10.4419 14.9246 10.6344 14.8722Z" fill="#F2F2F2"/>
<path d="M9.76425 4.79154L20.3249 3.87962C21.0929 3.8133 21.2977 3.11498 21.3041 2.77411L8.82336 3.85183C9.09934 4.55879 9.56561 4.77287 9.76425 4.79154Z" fill="#F2F2F2"/>
<path fill-rule="evenodd" clip-rule="evenodd" d="M26.5753 8.55194C26.5 7.04175 26.1171 4.54245 25.1488 3.42941C24.5465 2.73705 23.5224 3.1161 22.7367 3.59026L21.4639 4.35837C21.1008 4.57752 20.5869 4.74702 20.5566 5.17006C20.5468 5.30677 20.5791 5.47423 20.6806 5.67571C20.9284 6.11002 21.4531 7.36767 21.6102 8.98069C21.7319 10.5968 21.4306 11.9257 21.2609 12.3961C21.1954 12.612 21.1923 12.7825 21.2254 12.9155C21.3278 13.3271 21.8631 13.406 22.2585 13.5597L23.6441 14.0982C24.4994 14.4307 25.5733 14.6286 26.048 13.8432C26.8112 12.5806 26.76 10.0527 26.5753 8.55194Z" fill="#F2F2F2"/>
<path fill-rule="evenodd" clip-rule="evenodd" d="M5.39611 10.8302C5.35899 10.4454 5.32562 10.059 5.29623 9.67354C5.19685 8.36989 5.53618 6.98348 5.90724 5.95807C6.15059 5.28561 6.90203 4.99413 7.57473 5.23685C8.47394 5.56129 8.96825 6.76005 8.83482 7.70665C8.73586 8.40868 8.69217 9.15326 8.68027 9.70148C8.67647 9.87677 8.69147 10.0505 8.72527 10.2226C8.83097 10.7607 9.00165 11.4867 9.21949 12.1614C9.51322 13.0711 9.23172 14.3369 8.40143 14.8107C7.7803 15.1651 6.99002 15.0067 6.635 14.386C6.09364 13.4393 5.52168 12.1316 5.39611 10.8302Z" fill="#F2F2F2"/>
<path d="M30.557 1.65271C30.7085 2.78595 31.5497 5.05971 33.7016 5.08883C33.478 4.15884 32.536 2.16962 30.557 1.65271Z" fill="#E0E0E0"/>
<path d="M33.9659 10.3856C32.9471 10.9045 31.081 12.4522 31.7673 14.4919C32.5705 13.9725 34.1347 12.4241 33.9659 10.3856Z" fill="#E0E0E0"/>
<path d="M2.60877 14.6517C3.17463 14.567 4.39835 14.8411 4.76645 16.6147C4.25636 16.5155 3.1107 15.9839 2.60877 14.6517Z" fill="#FF2626"/>
<path d="M2.60877 14.6517C3.17463 14.567 4.39835 14.8411 4.76645 16.6147C4.25636 16.5155 3.1107 15.9839 2.60877 14.6517Z" fill="url(#paint0_linear_235_1141)"/>
<path d="M3.57472 4.15067C3.74599 4.69659 3.66471 5.94799 1.9694 6.58626C1.98848 6.06696 2.33624 4.85281 3.57472 4.15067Z" fill="#FF2626"/>
<path d="M3.57472 4.15067C3.74599 4.69659 3.66471 5.94799 1.9694 6.58626C1.98848 6.06696 2.33624 4.85281 3.57472 4.15067Z" fill="url(#paint1_linear_235_1141)"/>
<defs>
<linearGradient id="paint0_linear_235_1141" x1="4.67424" y1="15.5469" x2="2.70079" y2="15.7173" gradientUnits="userSpaceOnUse">
<stop stop-color="#FFA3A3"/>
<stop offset="1" stop-color="#FC3030" stop-opacity="0"/>
</linearGradient>
<linearGradient id="paint1_linear_235_1141" x1="3.01009" y1="6.32984" x2="2.5362" y2="4.40657" gradientUnits="userSpaceOnUse">
<stop stop-color="#FFA3A3"/>
<stop offset="1" stop-color="#FC3030" stop-opacity="0"/>
</linearGradient>
</defs>
</svg>
