<svg width="33" height="24" viewBox="0 0 33 24" fill="none" xmlns="http://www.w3.org/2000/svg">
<g clip-path="url(#clip0_384_2208)">
<path d="M32.0247 15.443V15.0728H31.9237L31.8068 15.3268L31.6906 15.0728H31.5892V15.443H31.661V15.1641L31.7703 15.4047H31.8446L31.9539 15.1635V15.443H32.0251H32.0247ZM31.3837 15.443V15.1362H31.5131V15.0737H31.1826V15.1362H31.312V15.443H31.3831H31.3837Z" fill="#F79410"/>
<path d="M20.5418 17.0306H11.7979V2.0383H20.542L20.5418 17.0306Z" fill="#FF5F00"/>
<path d="M12.3514 9.53455C12.3514 6.49337 13.8439 3.78427 16.168 2.03841C14.4088 0.714934 12.2329 -0.0033615 9.99251 -0.000203253C4.47366 -0.000203253 0 4.26859 0 9.53455C0 14.8005 4.47366 19.0693 9.99251 19.0693C12.2329 19.0725 14.4089 18.3542 16.1682 17.0307C13.8442 15.2851 12.3514 12.5759 12.3514 9.53455Z" fill="#EB001B"/>
<path d="M32.337 9.53475C32.337 14.8007 27.8633 19.0695 22.3445 19.0695C20.1038 19.0726 17.9276 18.3544 16.168 17.0309C18.4927 15.285 19.9853 12.5761 19.9853 9.53475C19.9853 6.49341 18.4927 3.78447 16.168 2.03861C17.9276 0.715172 20.1037 -0.00310777 22.3443 -5.25012e-06C27.8632 -5.25012e-06 32.3368 4.26879 32.3368 9.53475" fill="#F79E1B"/>
</g>
<defs>
<clipPath id="clip0_384_2208">
<rect width="32.3335" height="24" fill="white"/>
</clipPath>
</defs>
</svg>
