<svg width="60" height="60" viewBox="0 0 60 60" fill="none" xmlns="http://www.w3.org/2000/svg">
<g filter="url(#filter0_d_358_2014)">
<circle cx="30" cy="25" r="20" fill="#F8F8F8"/>
<path d="M36 25.75H24C23.59 25.75 23.25 25.41 23.25 25C23.25 24.59 23.59 24.25 24 24.25H36C36.41 24.25 36.75 24.59 36.75 25C36.75 25.41 36.41 25.75 36 25.75Z" fill="#757575"/>
<path d="M30 31.75C29.59 31.75 29.25 31.41 29.25 31V19C29.25 18.59 29.59 18.25 30 18.25C30.41 18.25 30.75 18.59 30.75 19V31C30.75 31.41 30.41 31.75 30 31.75Z" fill="#757575"/>
</g>
<defs>
<filter id="filter0_d_358_2014" x="0" y="0" width="60" height="60" filterUnits="userSpaceOnUse" color-interpolation-filters="sRGB">
<feFlood flood-opacity="0" result="BackgroundImageFix"/>
<feColorMatrix in="SourceAlpha" type="matrix" values="0 0 0 0 0 0 0 0 0 0 0 0 0 0 0 0 0 0 127 0" result="hardAlpha"/>
<feOffset dy="5"/>
<feGaussianBlur stdDeviation="5"/>
<feComposite in2="hardAlpha" operator="out"/>
<feColorMatrix type="matrix" values="0 0 0 0 0 0 0 0 0 0 0 0 0 0 0 0 0 0 0.1 0"/>
<feBlend mode="normal" in2="BackgroundImageFix" result="effect1_dropShadow_358_2014"/>
<feBlend mode="normal" in="SourceGraphic" in2="effect1_dropShadow_358_2014" result="shape"/>
</filter>
</defs>
</svg>
