<svg width="20" height="20" viewBox="0 0 20 20" fill="none" xmlns="http://www.w3.org/2000/svg">
<path opacity="0.34" d="M6.98242 10L8.99076 12.0167L13.0158 7.98333" stroke="#4BB543" stroke-width="1.5" stroke-linecap="round" stroke-linejoin="round"/>
<path d="M8.95742 2.04167C9.53242 1.55 10.4741 1.55 11.0574 2.04167L12.3741 3.175C12.6241 3.39167 13.0908 3.56667 13.4241 3.56667H14.8408C15.7241 3.56667 16.4491 4.29167 16.4491 5.175V6.59167C16.4491 6.91667 16.6241 7.39167 16.8408 7.64167L17.9741 8.95834C18.4658 9.53334 18.4658 10.475 17.9741 11.0583L16.8408 12.375C16.6241 12.625 16.4491 13.0917 16.4491 13.425V14.8417C16.4491 15.725 15.7241 16.45 14.8408 16.45H13.4241C13.0991 16.45 12.6241 16.625 12.3741 16.8417L11.0574 17.975C10.4824 18.4667 9.54075 18.4667 8.95742 17.975L7.64076 16.8417C7.39076 16.625 6.92409 16.45 6.59075 16.45H5.14909C4.26575 16.45 3.54076 15.725 3.54076 14.8417V13.4167C3.54076 13.0917 3.36576 12.625 3.15742 12.375L2.03242 11.05C1.54909 10.475 1.54909 9.54167 2.03242 8.96667L3.15742 7.64167C3.36576 7.39167 3.54076 6.925 3.54076 6.6V5.16667C3.54076 4.28334 4.26575 3.55834 5.14909 3.55834H6.59075C6.91575 3.55834 7.39076 3.38334 7.64076 3.16667L8.95742 2.04167Z" stroke="#4BB543" stroke-width="1.5" stroke-linecap="round" stroke-linejoin="round"/>
</svg>
